<?xml version="1.0" encoding="UTF-8"?>
<!-- Created with Inkscape (http://www.inkscape.org/) -->
<svg width="148.2mm" height="64.61mm" version="1.1" viewBox="0 0 148.2 64.61" xmlns="http://www.w3.org/2000/svg"><g transform="translate(-12,-24.6)"><g transform="translate(-60.66,-92.25)" fill="none" stroke="#0875aa" stroke-linecap="round" stroke-width="1.323"><path d="m83.79 166.7c4.36-4.536 10.3-7.309 15.55-6.767l3.866 0.452s1.875 0.6393 6.4 0.0836c4.141-0.5085 6.817-2.124 8.089-0.9282 1.542 1.45 1.415 2.143 0.1058 3.61-3.899 2.589-5.69 3.102-8.722 3.446-2.272 0.2478-4.97 0.055-6.586 0.7109-1.346 0.5464-2.999 1.622-3.596 2.055" stop-color="#000000" style="paint-order:markers fill stroke"/><path d="m118.9 161s1.848-1.179 2.516-1.804c3.654-3.02 4.182-9.196 7.204-12.36 0.9906-0.6138 2.304-1.217 3.06-0.6096 0.7559 0.6072 0.8782 0.7304 0.489 2.797-1.786 12.97-13.73 23.99-23.43 27.61-4.971 1.347-9.023 0.9764-13.71-0.0681-3.149-0.9697-11.66-2.717-13.46-0.9939" stop-color="#000000" style="paint-order:markers fill stroke"/><path d="m124 135c-4.36 4.536-10.3 7.309-15.55 6.767l-3.866-0.452s-1.875-0.6393-6.4-0.0836c-4.141 0.5085-6.817 2.124-8.089 0.9282-1.542-1.45-1.415-2.143-0.1058-3.61 3.899-2.589 5.69-3.102 8.722-3.446 2.272-0.2478 4.97-0.055 6.586-0.7109 1.346-0.5464 2.999-1.622 3.596-2.055" stop-color="#000000" style="paint-order:markers fill stroke"/><path d="m88.89 140.7s-1.848 1.179-2.516 1.804c-3.654 3.02-4.182 9.196-7.204 12.36-0.9906 0.6138-2.304 1.217-3.06 0.6096-0.7559-0.6072-0.8782-0.7304-0.489-2.797 1.786-12.97 13.73-23.99 23.43-27.61 4.971-1.347 9.023-0.9764 13.71 0.0681 3.149 0.9697 11.66 2.717 13.46 0.9939" stop-color="#000000" style="paint-order:markers fill stroke"/></g><g transform="matrix(1.047 0 0 1.066 -2.442 -3.948)" stroke-width=".9468"><g transform="translate(-60.66,-92.25)" fill="none" stroke="#ff6363" stroke-linecap="round" stroke-width="1.186"><path d="m98.74 154.4v3.677h3.677" stop-color="#000000" style="paint-order:markers fill stroke"/><path d="m106.8 158.1h3.677v-3.677" stop-color="#000000" style="paint-order:markers fill stroke"/><path d="m110.5 151.4v-3.677h-3.677" stop-color="#000000" style="paint-order:markers fill stroke"/><path d="m102.5 147.7h-3.677v3.677" stop-color="#000000" style="paint-order:markers fill stroke"/></g><g fill="#ff6363" fill-rule="evenodd" stroke-width=".8963"><rect x="40.17" y="57.71" width="1" height="1" stop-color="#000000" style="paint-order:markers fill stroke"/><rect x="41.77" y="57.71" width="1" height="1" stop-color="#000000" style="paint-order:markers fill stroke"/><g transform="translate(-60.43 -90.52)"><rect x="100.6" y="149.7" width="1" height="1" stop-color="#000000" style="paint-order:markers fill stroke"/><rect x="102.2" y="149.7" width="1" height="1" stop-color="#000000" style="paint-order:markers fill stroke"/></g><g transform="translate(-60.43 -88.55)"><rect x="100.6" y="149.7" width="1" height="1" stop-color="#000000" style="paint-order:markers fill stroke"/><rect x="102.2" y="149.7" width="1" height="1" stop-color="#000000" style="paint-order:markers fill stroke"/></g><g transform="translate(-60.43 -87.07)"><rect x="100.6" y="149.7" width="1" height="1" stop-color="#000000" style="paint-order:markers fill stroke"/><rect x="102.2" y="149.7" width="1" height="1" stop-color="#000000" style="paint-order:markers fill stroke"/></g></g><g transform="translate(-55.46 -91.99)" fill="#ff6363" fill-rule="evenodd"><rect x="100.6" y="149.7" width="1" height="1" stop-color="#000000" stroke-width=".8486" style="paint-order:markers fill stroke"/><rect x="102.2" y="149.7" width="1" height="1" stop-color="#000000" stroke-width=".8486" style="paint-order:markers fill stroke"/><g stroke-width=".8963"><g transform="translate(0,1.474)"><rect x="100.6" y="149.7" width="1" height="1" stop-color="#000000" style="paint-order:markers fill stroke"/><rect x="102.2" y="149.7" width="1" height="1" stop-color="#000000" style="paint-order:markers fill stroke"/></g><g transform="translate(0,3.446)"><rect x="100.6" y="149.7" width="1" height="1" stop-color="#000000" style="paint-order:markers fill stroke"/><rect x="102.2" y="149.7" width="1" height="1" stop-color="#000000" style="paint-order:markers fill stroke"/></g><g transform="translate(0,4.92)"><rect x="100.6" y="149.7" width="1" height="1" stop-color="#000000" style="paint-order:markers fill stroke"/><rect x="102.2" y="149.7" width="1" height="1" stop-color="#000000" style="paint-order:markers fill stroke"/></g></g></g><path d="m44.05 51.13 8.193 3.007" fill="none" stop-color="#000000" stroke="#ff6363" stroke-linecap="round" stroke-width="1.253" style="paint-order:markers fill stroke"/><path d="m43.85 51.13-8.193 3.007" fill="none" stop-color="#000000" stroke="#ff6363" stroke-linecap="round" stroke-width="1.253" style="paint-order:markers fill stroke"/></g><g transform="translate(0 .2554)" image-rendering="auto" stroke-linecap="round"><g fill="#0875aa" fill-rule="evenodd" stop-color="#000000" stroke-width="1.323" style="paint-order:markers fill stroke" aria-label="управляющаякомпания«ДОМ»"><path d="m73.72 41.68 1.563-5.029h1.228l-2.698 7.745q-0.6263 1.674-1.991 1.674l-0.217-0.0186-0.4279-0.08062v-0.9302l0.3101 0.02481q0.5829 0 0.9054-0.2356 0.3287-0.2356 0.5395-0.862l0.2542-0.6821-2.394-6.635h1.253z"/><path d="m83.02 43.36h-1.147v-5.761h-3.088v5.761h-1.153v-6.71h5.389z"/><path d="m90.53 40.08q0 1.532-0.7007 2.468-0.7007 0.9364-1.898 0.9364-1.222 0-1.922-0.7751v3.231h-1.147v-9.289h1.048l0.05581 0.7441q0.7007-0.8682 1.947-0.8682 1.209 0 1.91 0.9116 0.7069 0.9116 0.7069 2.536zm-1.147-0.1302q0-1.135-0.4837-1.792-0.4837-0.6573-1.327-0.6573-1.042 0-1.563 0.924v3.206q0.5147 0.9178 1.575 0.9178 0.8248 0 1.308-0.6511 0.4899-0.6573 0.4899-1.947z"/><path d="m96.13 43.36q-0.09922-0.1984-0.1612-0.7069-0.8 0.831-1.91 0.831-0.9922 0-1.631-0.5581-0.6325-0.5643-0.6325-1.426 0-1.048 0.7938-1.625 0.8-0.5829 2.245-0.5829h1.116v-0.5271q0-0.6015-0.3597-0.955-0.3597-0.3597-1.06-0.3597-0.6139 0-1.029 0.3101-0.4155 0.3101-0.4155 0.7503h-1.153q0-0.5023 0.3535-0.9674 0.3597-0.4713 0.9674-0.7441 0.6139-0.2729 1.346-0.2729 1.16 0 1.817 0.5829 0.6573 0.5767 0.6821 1.594v3.088q0 0.924 0.2356 1.47v0.09922zm-1.904-0.8744q0.5395 0 1.023-0.2791 0.4837-0.2791 0.7007-0.7255v-1.377h-0.8992q-2.108 0-2.108 1.234 0 0.5395 0.3597 0.8434 0.3597 0.3039 0.924 0.3039z"/><path d="m99 43.36v-6.71h2.617q1.339 0 2.053 0.4713 0.7193 0.4651 0.7193 1.37 0 0.4651-0.279 0.8434-0.2791 0.3721-0.8248 0.5705 0.6077 0.1426 0.9736 0.5581 0.3721 0.4155 0.3721 0.9922 0 0.924-0.6821 1.414-0.6759 0.4899-1.916 0.4899zm1.147-2.946v2.022h1.898q0.7193 0 1.073-0.2666 0.3597-0.2667 0.3597-0.7503 0-1.005-1.476-1.005zm0-0.9178h1.482q1.612 0 1.612-0.9426t-1.525-0.9736h-1.569z"/><path d="m111.7 36.65v6.71h-1.153v-5.761h-2.282l-0.1364 2.511q-0.1116 1.73-0.5829 2.474-0.4651 0.7441-1.482 0.7751h-0.4589v-1.011l0.3287-0.02481q0.5581-0.06201 0.8-0.6449 0.2418-0.5829 0.3101-2.158l0.124-2.871z"/><path d="m118.6 36.65v6.71h-1.153v-2.611h-1.73l-1.581 2.611h-1.24l1.687-2.784q-0.6449-0.2356-0.9922-0.7255-0.3411-0.4961-0.3411-1.153 0-0.9178 0.6883-1.476 0.6883-0.5643 1.842-0.5705zm-4.198 2.059q0 0.4899 0.3349 0.7938 0.3349 0.2977 0.8868 0.3039h1.823v-2.226h-1.65q-0.6387 0-1.017 0.3163-0.3783 0.3101-0.3783 0.8124z"/><path d="m121.7 39.5h1.612q0.1302-1.339 0.9488-2.152 0.8248-0.8186 2.077-0.8186 1.315 0 2.152 0.8868 0.8372 0.8868 0.9054 2.307l6e-3 0.3597q0 0.9798-0.3845 1.767-0.3845 0.7875-1.079 1.215-0.6945 0.4217-1.588 0.4217-1.296 0-2.121-0.8434-0.8248-0.8496-0.924-2.201h-1.606v2.921h-1.147v-6.71h1.147zm2.741 0.5829q0 1.116 0.5147 1.792 0.5209 0.6759 1.395 0.6759 0.8744 0 1.383-0.6883 0.5147-0.6883 0.5147-1.916 0-1.098-0.5209-1.786t-1.389-0.6883q-0.8558 0-1.377 0.6759-0.5209 0.6759-0.5209 1.935z"/><path d="m132 36.65v5.773h2.456v-5.773h1.147v5.773h2.449v-5.773h1.153v5.773h0.9426l-0.1116 2.927h-1.029v-1.991h-8.161v-6.71z"/><path d="m145.5 43.36q-0.0992-0.1984-0.1612-0.7069-0.8 0.831-1.91 0.831-0.9922 0-1.631-0.5581-0.6325-0.5643-0.6325-1.426 0-1.048 0.7938-1.625 0.8-0.5829 2.245-0.5829h1.116v-0.5271q0-0.6015-0.3597-0.955-0.3597-0.3597-1.06-0.3597-0.6139 0-1.029 0.3101-0.4155 0.3101-0.4155 0.7503h-1.153q0-0.5023 0.3535-0.9674 0.3597-0.4713 0.9674-0.7441 0.6139-0.2729 1.346-0.2729 1.16 0 1.817 0.5829 0.6573 0.5767 0.6821 1.594v3.088q0 0.924 0.2356 1.47v0.09922zm-1.904-0.8744q0.5395 0 1.023-0.2791t0.7007-0.7255v-1.377h-0.8992q-2.108 0-2.108 1.234 0 0.5395 0.3597 0.8434 0.3597 0.3039 0.924 0.3039z"/><path d="m153.4 36.65v6.71h-1.153v-2.611h-1.73l-1.581 2.611h-1.24l1.687-2.784q-0.6449-0.2356-0.9922-0.7255-0.3411-0.4961-0.3411-1.153 0-0.9178 0.6883-1.476 0.6883-0.5643 1.842-0.5705zm-4.198 2.059q0 0.4899 0.3349 0.7938 0.3349 0.2977 0.8868 0.3039h1.823v-2.226h-1.65q-0.6387 0-1.017 0.3163-0.3783 0.3101-0.3783 0.8124z"/><path d="m85.83 51.3h-0.8372v2.859h-1.153v-6.71h1.153v2.84h0.7503l2.257-2.84h1.389l-2.654 3.225 2.877 3.485h-1.457z"/><path d="m90.17 50.74q0-0.986 0.3845-1.774 0.3907-0.7875 1.079-1.215 0.6945-0.4279 1.581-0.4279 1.37 0 2.214 0.9488 0.8496 0.9488 0.8496 2.524v0.08062q0 0.9798-0.3783 1.761-0.3721 0.7751-1.073 1.209-0.6945 0.4341-1.6 0.4341-1.364 0-2.214-0.9488-0.8434-0.9488-0.8434-2.511zm1.153 0.1364q0 1.116 0.5147 1.792 0.5209 0.6759 1.389 0.6759 0.8744 0 1.389-0.6821 0.5147-0.6883 0.5147-1.922 0-1.104-0.5271-1.786-0.5209-0.6883-1.389-0.6883-0.8496 0-1.37 0.6759-0.5209 0.6759-0.5209 1.935z"/><path d="m101.6 52.64 2.282-5.19h1.432v6.71h-1.147v-4.88l-2.17 4.88h-0.7938l-2.214-4.986v4.986h-1.147v-6.71h1.488z"/><path d="m112.6 54.15h-1.147v-5.761h-3.088v5.761h-1.153v-6.71h5.389z"/><path d="m118.6 54.15q-0.0992-0.1984-0.1612-0.7069-0.8 0.831-1.91 0.831-0.9922 0-1.631-0.5581-0.6325-0.5643-0.6325-1.426 0-1.048 0.7938-1.625 0.8-0.5829 2.245-0.5829h1.116v-0.5271q0-0.6015-0.3597-0.955-0.3597-0.3597-1.06-0.3597-0.6139 0-1.029 0.3101-0.4155 0.3101-0.4155 0.7503h-1.153q0-0.5023 0.3535-0.9674 0.3597-0.4713 0.9674-0.7441 0.6139-0.2729 1.346-0.2729 1.16 0 1.817 0.5829 0.6573 0.5767 0.6821 1.594v3.088q0 0.924 0.2356 1.47v0.09922zm-1.904-0.8744q0.5395 0 1.023-0.2791t0.7007-0.7255v-1.377h-0.8992q-2.108 0-2.108 1.234 0 0.5395 0.3597 0.8434 0.3597 0.3039 0.924 0.3039z"/><path d="m126.9 54.15h-1.147v-2.865h-3.082v2.865h-1.153v-6.71h1.153v2.908h3.082v-2.908h1.147z"/><path d="m133 47.44h1.147v6.71h-1.147v-4.893l-3.094 4.893h-1.147v-6.71h1.147v4.899z"/><path d="m141.2 47.44v6.71h-1.153v-2.611h-1.73l-1.581 2.611h-1.24l1.687-2.784q-0.6449-0.2356-0.9922-0.7255-0.3411-0.4961-0.3411-1.153 0-0.9178 0.6883-1.476 0.6883-0.5643 1.842-0.5705zm-4.198 2.059q0 0.4899 0.3349 0.7938 0.3349 0.2977 0.8868 0.3039h1.823v-2.226h-1.65q-0.6387 0-1.017 0.3163-0.3783 0.3101-0.3783 0.8124z"/><path d="m86.91 72.97 1.918 3.298h-1.703l-2.249-3.224v-0.1571l2.249-3.224h1.703zm3.414 0 1.918 3.298h-1.703l-2.249-3.224v-0.1571l2.249-3.224h1.703z"/><path d="m105.2 80.19h-2.604v-2.959h-6.555v2.951h-2.687l-0.2067-5.183h0.8515q0.6696-0.4464 1.075-1.529 0.4133-1.091 0.5869-3.125l0.372-5.15h8.192v9.804h1.281zm-7.919-5.191h4.051v-7.564h-2.563l-0.2232 3.009q-0.248 2.926-1.265 4.555z"/><path d="m116.5 71.46q0 1.761-0.6531 3.117-0.6531 1.356-1.86 2.091-1.199 0.7275-2.736 0.7275t-2.728-0.7027q-1.19-0.7109-1.86-2.025-0.6613-1.314-0.6944-3.017v-0.6779q0-1.769 0.6448-3.117 0.6531-1.356 1.86-2.091 1.215-0.7357 2.761-0.7357 1.529 0 2.728 0.7275 1.199 0.7275 1.86 2.075 0.6696 1.339 0.6779 3.075zm-2.951-0.5043q0-1.794-0.6035-2.72-0.5952-0.9341-1.711-0.9341-2.182 0-2.306 3.274l-8e-3 0.8845q0 1.769 0.5869 2.72 0.5869 0.9507 1.744 0.9507 1.099 0 1.695-0.9341 0.5952-0.9341 0.6035-2.687z"/><path d="m121.8 65.19 2.687 8.374 2.678-8.374h3.819v12.04h-2.91v-2.811l0.2811-5.754-2.91 8.564h-1.918l-2.918-8.572 0.2811 5.762v2.811h-2.902v-12.04z"/><path d="m134.3 69.67 2.249 3.224v0.1571l-2.249 3.224h-1.711l1.918-3.298-1.918-3.307zm3.414 0 2.249 3.224v0.1571l-2.249 3.224h-1.711l1.918-3.298-1.918-3.307z"/></g><path d="m94.5 59.77h35.16" fill="none" stop-color="#000000" stroke="#ff6363" stroke-width="2.123" style="paint-order:markers fill stroke"/></g></g></svg>
