<?xml version="1.0" encoding="UTF-8"?>
<svg id="_Слой_1" data-name="Слой 1" xmlns="http://www.w3.org/2000/svg" xmlns:xlink="http://www.w3.org/1999/xlink" viewBox="0 0 1128.50509 283.46457">
  <defs>
    <style>
      .cls-1 {
        fill: url(#linear-gradient);
      }

      .cls-1, .cls-2, .cls-3, .cls-4, .cls-5, .cls-6, .cls-7, .cls-8 {
        stroke-width: 0px;
      }

      .cls-2 {
        fill: url(#radial-gradient);
      }

      .cls-3 {
        fill: url(#linear-gradient-4);
      }

      .cls-4 {
        fill: url(#linear-gradient-2);
      }

      .cls-5 {
        fill: url(#linear-gradient-3);
      }

      .cls-6 {
        fill: url(#linear-gradient-5);
      }

      .cls-7 {
        fill: url(#linear-gradient-6);
      }

      .cls-8 {
        fill: #3c3c3b;
      }
    </style>
    <radialGradient id="radial-gradient" cx="40083.31735" cy="-13260.42414" fx="40083.31735" fy="-13260.42414" r="296.62243" gradientTransform="translate(-5528.62477 2004.45683) rotate(-.06342) scale(.14128)" gradientUnits="userSpaceOnUse">
      <stop offset="0" stop-color="#5f94cc"/>
      <stop offset="1" stop-color="#202562"/>
    </radialGradient>
    <linearGradient id="linear-gradient" x1="41.22688" y1="121.70687" x2="111.69702" y2="13.19238" gradientUnits="userSpaceOnUse">
      <stop offset="0" stop-color="#5f94cc"/>
      <stop offset="1" stop-color="#202562"/>
    </linearGradient>
    <linearGradient id="linear-gradient-2" x1="69.3551" y1="-3.35434" x2="244.41339" y2="67.37379" xlink:href="#linear-gradient"/>
    <linearGradient id="linear-gradient-3" x1="-6069.29684" y1="-8690.64681" x2="-5998.83086" y2="-8799.15491" gradientTransform="translate(4666.32569 -9362.71681) rotate(-120)" xlink:href="#linear-gradient"/>
    <linearGradient id="linear-gradient-4" x1="-6041.17508" y1="-8815.70122" x2="-5866.10431" y2="-8744.96804" gradientTransform="translate(4666.32569 -9362.71681) rotate(-120)" xlink:href="#linear-gradient"/>
    <linearGradient id="linear-gradient-5" x1="4617.68805" y1="-9576.32982" x2="4688.15831" y2="-9684.84449" gradientTransform="translate(-5775.18776 -8722.51499) rotate(120)" xlink:href="#linear-gradient"/>
    <linearGradient id="linear-gradient-6" x1="4645.81541" y1="-9701.38991" x2="4820.88018" y2="-9630.65915" gradientTransform="translate(-5775.18776 -8722.51499) rotate(120)" xlink:href="#linear-gradient"/>
  </defs>
  <g>
    <path class="cls-8" d="M402.02804,210.79726h-7.39648v-24.06641l-13.9082,24.06641h-7.93945v-34.52148h7.39746v24.01709l13.95605-24.01709h7.89062v34.52148Z"/>
    <path class="cls-8" d="M441.2839,210.79726h-7.39746v-14.40039h-14.30176v14.40039h-7.39746v-34.52148h7.39746v13.5127h14.30176v-13.5127h7.39746v34.52148Z"/>
    <path class="cls-8" d="M473.28976,211.38905h-7.39648v-3.50146c-8.82812-.14795-16.02832-4.98096-16.02832-14.44971,0-9.17285,7.49609-14.30176,16.02832-14.44971v-3.55078h7.39648v3.55078c8.92676.14795,16.02832,5.03027,16.02832,14.44971s-7.89062,14.30176-16.02832,14.44971v3.50146ZM457.75558,193.43788c0,5.77002,4.09277,8.23584,8.33496,8.38379v-16.76758c-4.33984.14795-8.33496,2.56445-8.33496,8.38379ZM473.09249,201.82167c3.94531-.14795,8.33496-2.86035,8.33496-8.38379,0-6.06592-3.89551-8.23584-8.33496-8.38379v16.76758Z"/>
    <path class="cls-8" d="M505.34542,210.79726h-7.39746v-34.52148h11.88477c8.67969,0,14.1543,3.6001,14.1543,11.54004,0,7.79199-5.62207,12.18115-14.84375,12.18115h-3.79785v10.80029ZM505.19796,193.4872h4.04297c4.43945,0,7.10156-1.72607,7.10156-5.37549,0-3.84668-2.51465-5.32617-7.05176-5.32617h-4.09277v10.70166Z"/>
    <path class="cls-8" d="M550.07492,203.20253h-13.26562l-2.4668,7.59473h-7.29883l11.78711-34.52148h9.61719l11.63867,34.52148h-7.5459l-2.46582-7.59473ZM538.83078,196.74208h9.22266l-4.58691-14.49902-4.63574,14.49902Z"/>
    <path class="cls-8" d="M592.33956,209.4164c-1.77539.93701-4.29004,1.97266-9.32129,1.97266-10.55273,0-17.50684-6.06592-17.50684-17.40869,0-11.88525,6.9541-18.29639,18.24707-18.29639,3.74805,0,6.85547.78906,8.67969,1.62744l-1.62695,6.21387c-2.07227-.69043-4.43945-1.03564-6.01758-1.03564-6.80469,0-11.44141,3.40283-11.44141,11.04688,0,7.29883,4.43945,10.99756,11.39258,10.99756,1.57812,0,3.99414-.44385,6.11523-1.33154l1.47949,6.21387Z"/>
    <path class="cls-8" d="M616.05929,210.79726h-7.39648v-27.71582h-9.81445v-6.80566h26.97656v6.80566h-9.76562v27.71582Z"/>
    <path class="cls-8" d="M640.8171,210.79726h-7.39746v-34.52148h11.88574c8.67969,0,14.15332,3.6001,14.15332,11.54004,0,7.79199-5.62207,12.18115-14.84473,12.18115h-3.79688v10.80029ZM640.66867,193.4872h4.04492c4.4375,0,7.10156-1.72607,7.10156-5.37549,0-3.84668-2.51562-5.32617-7.05273-5.32617h-4.09375v10.70166Z"/>
    <path class="cls-8" d="M673.61203,206.1122c1.77539-1.08496,3.25391-2.36719,4.09277-3.896l.14746-.34521-12.82227-25.59521h8.58203l8.13672,18.3457,6.6084-18.3457h7.64355l-10.89844,26.87744c-1.62695,3.99463-4.43848,7.10156-7.34766,8.67969l-4.14258-5.7207Z"/>
    <path class="cls-8" d="M710.30343,190.72548h1.77539l10.60352-14.44971h8.58008l-12.18066,15.09082c3.99512,1.23291,5.7207,7.44678,12.72363,19.43066h-8.48242c-7.05273-12.18115-6.11523-14.25244-10.35645-14.25244h-2.66309v14.25244h-7.39746v-34.52148h7.39746v14.44971Z"/>
    <path class="cls-8" d="M753.35617,210.79726h-7.39844v-27.71582h-9.81348v-6.80566h26.97559v6.80566h-9.76367v27.71582Z"/>
    <path class="cls-8" d="M778.0632,206.1122c1.77539-1.08496,3.25391-2.36719,4.09277-3.896l.14746-.34521-12.82227-25.59521h8.58203l8.13672,18.3457,6.6084-18.3457h7.64355l-10.89844,26.87744c-1.62695,3.99463-4.43848,7.10156-7.34766,8.67969l-4.14258-5.7207Z"/>
    <path class="cls-8" d="M814.7546,210.79726h-7.39746v-34.52148h11.88574c8.67969,0,14.15332,3.6001,14.15332,11.54004,0,7.79199-5.62207,12.18115-14.84473,12.18115h-3.79688v10.80029ZM814.60617,193.4872h4.04492c4.4375,0,7.10156-1.72607,7.10156-5.37549,0-3.84668-2.51562-5.32617-7.05273-5.32617h-4.09375v10.70166Z"/>
    <path class="cls-8" d="M870.77706,210.79726h-7.39746v-14.40039h-14.30176v14.40039h-7.39746v-34.52148h7.39746v13.5127h14.30176v-13.5127h7.39746v34.52148Z"/>
    <path class="cls-8" d="M880.93624,210.79726v-34.52148h7.39746v11.29346h3.79785c8.82715,0,13.85742,3.45215,13.85742,11.34277,0,7.54541-5.32617,11.88525-14.40039,11.88525h-10.65234ZM888.3337,204.28749h2.76172c5.17871,0,7.24902-2.12061,7.24902-5.32617,0-3.45215-2.26758-4.88232-7.24902-4.88232h-2.76172v10.2085ZM917.23312,210.79726h-7.39746v-34.52148h7.39746v34.52148Z"/>
    <path class="cls-8" d="M949.53585,210.79726h-22.14355v-34.52148h22.14355v6.50977h-14.74609v7.34814h12.9707v6.06592h-12.9707v8.08789h14.74609v6.50977Z"/>
  </g>
  <g>
    <path class="cls-8" d="M395.51971,141.75451h-22.73581V35.65702h36.52687c6.67018,0,12.68063.70877,18.03805,2.1222,5.3555,1.41584,9.92639,3.56182,13.71615,6.44241,3.78912,2.87854,6.69311,6.56879,8.71472,11.06479,2.0214,4.49615,3.03334,9.77618,3.03334,15.83805,0,5.96332-1.03779,11.26678-3.10866,15.91544-2.07068,4.64844-5.07591,8.56255-9.01776,11.74588-3.94198,3.18148-8.74078,5.60663-14.39894,7.2755-5.66022,1.6671-12.02518,2.50068-19.09678,2.50068h-11.67118v33.19254ZM395.06426,88.55429h12.42937c6.86961,0,12.22489-1.33824,16.06613-4.01706,3.83833-2.67435,5.75878-6.84369,5.75878-12.50385,0-5.96112-1.87118-10.17796-5.60876-12.65479-3.73779-2.47456-9.09322-3.7139-16.06592-3.7139h-12.5796v32.88959Z"/>
    <path class="cls-8" d="M521.62218,143.57411c-7.67956,0-14.67811-1.18999-20.99173-3.5616-6.31525-2.3736-11.7458-5.88593-16.29354-10.53444-4.54753-4.64638-8.05976-10.38187-10.53435-17.2044-2.47686-6.82033-3.71216-14.67574-3.71216-23.56687s1.28678-16.74852,3.86438-23.56886c2.5759-6.82026,6.13755-12.55355,10.68486-17.20241,4.54753-4.64823,9.92908-8.16063,16.14352-10.53423,6.21238-2.37381,12.95768-3.5616,20.23332-3.5616,8.18451,0,15.48359,1.26312,21.90243,3.78922,6.41424,2.52653,11.8212,6.13748,16.21665,10.83498,4.39701,4.70034,7.75425,10.45947,10.08109,17.2798,2.32215,6.82026,3.4839,14.4739,3.4839,22.9631,0,9.39564-1.28635,17.55648-3.86445,24.47798-2.5754,6.92108-6.16495,12.63094-10.75998,17.12666-4.59922,4.49615-10.0037,7.83219-16.21835,10.00402-6.21465,2.17168-12.95973,3.25866-20.2356,3.25866ZM522.38067,123.56629c3.83853,0,7.37433-.7065,10.60966-2.12212,3.23264-1.41342,6.01046-3.56168,8.3368-6.44248,2.32194-2.87854,4.11572-6.48941,5.38091-10.83469,1.26136-4.34343,1.89474-9.49688,1.89474-15.4602,0-12.02497-2.52812-20.84077-7.57839-26.44959-5.05496-5.60641-11.72258-8.41189-20.0079-8.41189-3.74006,0-7.25201.7087-10.53435,2.12212-3.28461,1.4157-6.13755,3.56168-8.56272,6.44241-2.42531,2.87861-4.32011,6.5171-5.68379,10.91208-1.36438,4.39498-2.04703,9.52499-2.04703,15.38487,0,5.96332.73235,11.11677,2.19748,15.4602,1.46499,4.34528,3.46047,7.95616,5.9866,10.83469,2.52613,2.88081,5.50794,5.02906,8.94256,6.44248,3.43527,1.41563,7.12585,2.12212,11.06543,2.12212Z"/>
    <path class="cls-8" d="M674.55495,137.55265c-1.41784.70494-2.95596,1.40696-4.62285,2.10743-1.66692.70465-3.63884,1.35542-5.91143,1.95713-2.27267.60149-4.90224,1.07839-7.87943,1.43039-2.9818.34796-6.39321.52652-10.23381.52652-8.08553,0-15.43652-1.16458-22.05295-3.48649-6.61613-2.32411-12.27459-5.73321-16.97463-10.23142-4.70025-4.49395-8.3346-10.07899-10.91263-16.74654-2.57746-6.66982-3.86644-14.34752-3.86644-23.0385,0-9.0951,1.28898-17.15094,3.86644-24.17525,2.57803-7.02225,6.28977-12.90776,11.14025-17.65723,4.85071-4.7494,10.73655-8.33713,17.65771-10.76199,6.92158-2.42536,14.72788-3.637,23.41939-3.637,5.75699,0,10.93386.50714,15.53515,1.5146,4.597,1.01151,8.30909,2.17388,11.14023,3.48606l-5.00524,19.0972c-3.23485-1.1109-6.5174-1.91857-9.85121-2.42536-3.33388-.50295-6.21222-.75641-8.63982-.75641-5.25425,0-10.02763.65744-14.31964,1.97409-4.29604,1.31715-7.98685,3.36856-11.06718,6.15239-3.08483,2.78631-5.4821,6.33031-7.20048,10.6332-1.71845,4.30715-2.57363,9.39365-2.57363,15.26666,0,11.24115,3.15349,19.69806,9.47363,25.36929,6.31092,5.67067,14.82635,8.50639,25.53678,8.50639,2.4276,0,5.35322-.32638,8.79034-.9858,3.43683-.65545,6.77064-1.69053,10.00619-3.10644l4.54526,18.98709Z"/>
    <path class="cls-8" d="M760.94471,118.56556h-40.7718l-7.57839,23.18895h-22.43087l36.2259-106.09749h29.55445l35.77089,106.09749h-23.19127l-7.57891-23.18895ZM726.38954,98.55838h28.34279l-14.09606-44.56099-14.24672,44.56099Z"/>
    <path class="cls-8" d="M843.40343,141.75451h-22.73603V56.57319h-30.16397v-20.91617h82.90969v20.91617h-30.00969v85.18132Z"/>
    <path class="cls-8" d="M935.55465,143.57411c-7.67736,0-14.67634-1.18999-20.9918-3.5616-6.31561-2.3736-11.7458-5.88593-16.29127-10.53444-4.55002-4.64638-8.06019-10.38187-10.53484-17.2044-2.47863-6.82033-3.71614-14.67574-3.71614-23.56687s1.28905-16.74852,3.86666-23.56886c2.57782-6.82026,6.13932-12.55355,10.68458-17.20241,4.54554-4.64823,9.92908-8.16063,16.14153-10.53423,6.21685-2.37381,12.96193-3.5616,20.23553-3.5616,8.18415,0,15.48359,1.26312,21.90229,3.78922,6.41437,2.52653,11.82333,6.13748,16.21842,10.83498,4.39503,4.70034,7.75049,10.45947,10.07903,17.2798,2.32464,6.82026,3.48433,14.4739,3.48433,22.9631,0,9.39564-1.28855,17.55648-3.86211,24.47798-2.57768,6.92108-6.16545,12.63094-10.76247,17.12666-4.60128,4.49615-10.00598,7.83219-16.21821,10.00402-6.21685,2.17168-12.95767,3.25866-20.23553,3.25866ZM936.31484,123.56629c3.83684,0,7.37264-.7065,10.6079-2.12212,3.23491-1.41342,6.01046-3.56168,8.3346-6.44248,2.32421-2.87854,4.11572-6.48941,5.38311-10.83469,1.26299-4.34343,1.89481-9.49688,1.89481-15.4602,0-12.02497-2.52613-20.84077-7.57889-26.44959-5.05226-5.60641-11.72436-8.41189-20.00748-8.41189-3.73779,0-7.25244.7087-10.53477,2.12212-3.28212,1.4157-6.13953,3.56168-8.56222,6.44241-2.42758,2.87861-4.32232,6.5171-5.68408,10.91208-1.36637,4.39498-2.04526,9.52499-2.04526,15.38487,0,5.96332.73036,11.11677,2.19528,15.4602,1.46541,4.34528,3.46317,7.95616,5.9893,10.83469,2.52187,2.88081,5.50374,5.02906,8.94057,6.44248,3.43278,1.41563,7.12315,2.12212,11.06712,2.12212Z"/>
    <path class="cls-8" d="M1128.50509,141.75451h-22.88654l-5.76097-70.47959-21.82533,70.47959h-21.67467l-21.52436-70.17459-5.75699,70.17459h-22.88654l10.60769-106.09749h27.13112l23.94733,80.02802,23.64673-80.02802h26.22035l10.76218,106.09749Z"/>
  </g>
  <g>
    <path class="cls-2" d="M163.85266,161.70349c-11.02261,12.20675-29.84448,13.16763-42.05242,2.15372-12.21217-11.01432-13.19073-29.84645-2.18974-42.05527,11.01794-12.20885,29.85298-13.15919,42.06091-2.1474,12.20793,11.01433,13.18225,29.84055,2.18126,42.04895Z"/>
    <path class="cls-1" d="M56.48475,28.50186c-19.48058,14.69332-35.0483,34.29862-44.86255,56.97495,11.77736,2.903,47.03932,14.3788,63.21725,58.05832,4.86592-1.58554,15.35522-7.69886,22.63282-31.30037,9.75886-31.59873,28.272-61.99123,52.28013-72.19655-23.94098-23.68593-55.48442-29.26316-93.26764-11.53635Z"/>
    <path class="cls-4" d="M250.88422,51.34997c.00222-.00266.00431-.00542.00648-.00808C224.89758,19.97805,185.64825,0,141.73281,0c-32.00209,0-61.52624,10.60922-85.2486,28.50221,52.4526-24.60986,92.87801-4.30815,117.63375,47.0071,39.43249,7.07231,66.21286-12.54843,76.76625-24.15935Z"/>
    <path class="cls-5" d="M86.31421,272.16302c22.46407,9.52536,47.22526,13.20582,71.76911,10.36772-3.37481-11.6518-11.06824-47.92988,18.66736-83.78125-3.80597-3.42157-14.34449-9.44964-38.42117-3.95197-32.24256,7.34727-67.81772,6.5094-88.65914-9.18124-8.5405,32.57811,2.40159,62.68632,36.64384,86.54674Z"/>
    <path class="cls-3" d="M8.89994,92.37071c-.00342-.00059-.00684-.00102-.01024-.00157-14.16317,38.19441-11.83862,82.17705,10.1191,120.21195,16.00105,27.71683,39.95025,47.98291,67.30598,59.58221-47.53737-33.12396-50.16968-78.28703-18.11077-125.38546-13.59193-37.68841-43.97283-51.07236-59.30407-54.40713Z"/>
    <path class="cls-6" d="M282.39947,124.49732c-2.98349-24.21868-12.17696-47.50444-26.90656-67.34267-8.40255,8.74881-35.97108,33.55108-81.8846,25.72293-1.05995,5.00711-1.01073,17.1485,15.78835,35.25233,22.4837,24.25146,39.54572,55.48183,36.37901,81.37779,32.48148-8.89218,53.08284-33.42316,56.6238-75.01039Z"/>
    <path class="cls-7" d="M165.41427,281.44152c.0012.00325.00254.00644.00376.00965,40.15628-6.83057,77.08107-30.83516,99.03879-68.87007,16.00105-27.71683,21.576-58.59214,17.94262-88.08442-4.91523,57.73382-42.70833,82.59518-99.52298,78.37836-25.84056,30.6161-22.24003,63.62079-17.46218,78.56648Z"/>
  </g>
  <rect class="cls-8" x="324.48782" y="17.00751" width="7.27375" height="249.44954"/>
  <g>
    <path class="cls-8" d="M380.18136,266.45693h-7.39746v-34.52148h11.88477c8.67969,0,14.1543,3.60059,14.1543,11.54004,0,7.79199-5.62207,12.18164-14.84375,12.18164h-3.79785v10.7998ZM380.0339,249.14736h4.04297c4.43945,0,7.10156-1.72656,7.10156-5.37598,0-3.84668-2.51465-5.32617-7.05176-5.32617h-4.09277v10.70215Z"/>
    <path class="cls-8" d="M429.2507,266.45693h-22.14258v-34.52148h22.14258v6.50977h-14.74512v7.34863h12.96973v6.06543h-12.96973v8.08789h14.74512v6.50977Z"/>
    <path class="cls-8" d="M478.61691,266.45693h-40.24219v-34.52148h7.39746v27.86426h9.02539v-27.86426h7.39648v27.86426h9.02539v-27.86426h7.39746v34.52148Z"/>
    <path class="cls-8" d="M510.91867,266.45693h-22.14355v-34.52148h22.14355v6.50977h-14.74609v7.34863h12.9707v6.06543h-12.9707v8.08789h14.74609v6.50977Z"/>
    <path class="cls-8" d="M549.13839,266.45693h-7.39746v-14.40039h-14.30176v14.40039h-7.39746v-34.52148h7.39746v13.5127h14.30176v-13.5127h7.39746v34.52148Z"/>
    <path class="cls-8" d="M588.54171,266.45693h-7.39648v-24.06641l-13.9082,24.06641h-7.93945v-34.52148h7.39746v24.01758l13.95605-24.01758h7.89062v34.52148Z"/>
    <path class="cls-8" d="M598.01046,243.27821c0-7.84082,5.03027-11.34277,13.70996-11.34277h12.0332v34.52148h-7.39746v-11.93457h-3.10742c-4.53711,0-4.04297,2.02246-8.53125,11.93457h-8.38379c3.99512-9.27148,4.78418-12.5752,7.49609-13.90723-3.45215-1.42969-5.81934-4.24121-5.81934-9.27148ZM616.4548,248.40712v-9.96191h-4.98145c-3.55078,0-5.81836,1.62793-5.81836,5.12891,0,3.40332,2.61328,4.83301,6.50977,4.83301h4.29004Z"/>
  </g>
</svg>